<mxfile host="app.diagrams.net" modified="2024-04-19T13:38:38.321Z" agent="Mozilla/5.0 (Windows NT 10.0; Win64; x64) AppleWebKit/537.36 (KHTML, like Gecko) Chrome/124.0.0.0 Safari/537.36" etag="lhooepk0HD5yplwpOin1" version="24.2.5" type="device">
  <diagram name="Page-1" id="5MQb0mMIHc4uOM60anmI">
    <mxGraphModel dx="1050" dy="557" grid="1" gridSize="10" guides="1" tooltips="1" connect="1" arrows="1" fold="1" page="1" pageScale="1" pageWidth="850" pageHeight="1100" math="0" shadow="0">
      <root>
        <mxCell id="0" />
        <mxCell id="1" parent="0" />
        <mxCell id="EPPNhRtLsCtgf8uHa5UB-1" value="" style="swimlane;fontStyle=0;childLayout=stackLayout;horizontal=1;startSize=26;fillColor=none;horizontalStack=0;resizeParent=1;resizeParentMax=0;resizeLast=0;collapsible=1;marginBottom=0;whiteSpace=wrap;html=1;" vertex="1" parent="1">
          <mxGeometry x="50" y="790" width="140" height="108" as="geometry" />
        </mxCell>
        <mxCell id="EPPNhRtLsCtgf8uHa5UB-5" value="&lt;span style=&quot;font-weight: 400;&quot;&gt;Dog&lt;/span&gt;" style="swimlane;fontStyle=1;align=center;verticalAlign=top;childLayout=stackLayout;horizontal=1;startSize=26;horizontalStack=0;resizeParent=1;resizeParentMax=0;resizeLast=0;collapsible=1;marginBottom=0;whiteSpace=wrap;html=1;" vertex="1" parent="1">
          <mxGeometry x="30" y="90" width="260" height="290" as="geometry" />
        </mxCell>
        <mxCell id="EPPNhRtLsCtgf8uHa5UB-6" value="Name : String&lt;div&gt;Breed : String&lt;/div&gt;Age : Int&amp;nbsp;&lt;div&gt;&lt;span style=&quot;background-color: initial;&quot;&gt;Color : String&lt;/span&gt;&lt;span style=&quot;background-color: initial;&quot;&gt;&amp;nbsp;&lt;/span&gt;&lt;br&gt;&lt;/div&gt;" style="text;strokeColor=none;fillColor=none;align=left;verticalAlign=top;spacingLeft=4;spacingRight=4;overflow=hidden;rotatable=0;points=[[0,0.5],[1,0.5]];portConstraint=eastwest;whiteSpace=wrap;html=1;" vertex="1" parent="EPPNhRtLsCtgf8uHa5UB-5">
          <mxGeometry y="26" width="260" height="84" as="geometry" />
        </mxCell>
        <mxCell id="EPPNhRtLsCtgf8uHa5UB-7" value="" style="line;strokeWidth=1;fillColor=none;align=left;verticalAlign=middle;spacingTop=-1;spacingLeft=3;spacingRight=3;rotatable=0;labelPosition=right;points=[];portConstraint=eastwest;strokeColor=inherit;" vertex="1" parent="EPPNhRtLsCtgf8uHa5UB-5">
          <mxGeometry y="110" width="260" height="8" as="geometry" />
        </mxCell>
        <mxCell id="EPPNhRtLsCtgf8uHa5UB-8" value="&lt;div&gt;Dog(name: Str.breed Str, age=int, coloreStr&lt;/div&gt;&lt;div&gt;getName(): String&lt;/div&gt;&lt;div&gt;getBreed(): String&lt;/div&gt;&lt;div&gt;getAge() Int&lt;/div&gt;&lt;div&gt;getColor(): String&lt;/div&gt;&lt;div&gt;message(): String&lt;/div&gt;&lt;div&gt;main():void&lt;/div&gt;" style="text;strokeColor=none;fillColor=none;align=left;verticalAlign=top;spacingLeft=4;spacingRight=4;overflow=hidden;rotatable=0;points=[[0,0.5],[1,0.5]];portConstraint=eastwest;whiteSpace=wrap;html=1;" vertex="1" parent="EPPNhRtLsCtgf8uHa5UB-5">
          <mxGeometry y="118" width="260" height="172" as="geometry" />
        </mxCell>
        <mxCell id="EPPNhRtLsCtgf8uHa5UB-9" value="&lt;span style=&quot;font-weight: 400;&quot;&gt;Dog&lt;/span&gt;" style="swimlane;fontStyle=1;align=center;verticalAlign=top;childLayout=stackLayout;horizontal=1;startSize=26;horizontalStack=0;resizeParent=1;resizeParentMax=0;resizeLast=0;collapsible=1;marginBottom=0;whiteSpace=wrap;html=1;" vertex="1" parent="1">
          <mxGeometry x="520" y="90" width="260" height="290" as="geometry" />
        </mxCell>
        <mxCell id="EPPNhRtLsCtgf8uHa5UB-10" value="Name : String&lt;div&gt;Breed : String&lt;/div&gt;Age : Int&amp;nbsp;&lt;div&gt;&lt;span style=&quot;background-color: initial;&quot;&gt;Color : String&lt;/span&gt;&lt;span style=&quot;background-color: initial;&quot;&gt;&amp;nbsp;&lt;/span&gt;&lt;br&gt;&lt;/div&gt;" style="text;strokeColor=none;fillColor=none;align=left;verticalAlign=top;spacingLeft=4;spacingRight=4;overflow=hidden;rotatable=0;points=[[0,0.5],[1,0.5]];portConstraint=eastwest;whiteSpace=wrap;html=1;" vertex="1" parent="EPPNhRtLsCtgf8uHa5UB-9">
          <mxGeometry y="26" width="260" height="84" as="geometry" />
        </mxCell>
        <mxCell id="EPPNhRtLsCtgf8uHa5UB-11" value="" style="line;strokeWidth=1;fillColor=none;align=left;verticalAlign=middle;spacingTop=-1;spacingLeft=3;spacingRight=3;rotatable=0;labelPosition=right;points=[];portConstraint=eastwest;strokeColor=inherit;" vertex="1" parent="EPPNhRtLsCtgf8uHa5UB-9">
          <mxGeometry y="110" width="260" height="8" as="geometry" />
        </mxCell>
        <mxCell id="EPPNhRtLsCtgf8uHa5UB-12" value="&lt;div&gt;Dog(name: Str.breed Str, age=int, coloreStr&lt;/div&gt;&lt;div&gt;getName(): Tuffy&lt;/div&gt;&lt;div&gt;getBreed(): Papilion&lt;/div&gt;&lt;div&gt;getAge(): 5&lt;/div&gt;&lt;div&gt;getColor(): White&lt;/div&gt;&lt;div&gt;message(): String&lt;/div&gt;&lt;div&gt;main():void&lt;/div&gt;" style="text;strokeColor=none;fillColor=none;align=left;verticalAlign=top;spacingLeft=4;spacingRight=4;overflow=hidden;rotatable=0;points=[[0,0.5],[1,0.5]];portConstraint=eastwest;whiteSpace=wrap;html=1;" vertex="1" parent="EPPNhRtLsCtgf8uHa5UB-9">
          <mxGeometry y="118" width="260" height="172" as="geometry" />
        </mxCell>
        <mxCell id="EPPNhRtLsCtgf8uHa5UB-13" value="&lt;span style=&quot;font-weight: 400;&quot;&gt;Dog&lt;/span&gt;" style="swimlane;fontStyle=1;align=center;verticalAlign=top;childLayout=stackLayout;horizontal=1;startSize=26;horizontalStack=0;resizeParent=1;resizeParentMax=0;resizeLast=0;collapsible=1;marginBottom=0;whiteSpace=wrap;html=1;" vertex="1" parent="1">
          <mxGeometry x="520" y="410" width="260" height="290" as="geometry" />
        </mxCell>
        <mxCell id="EPPNhRtLsCtgf8uHa5UB-14" value="Name : String&lt;div&gt;Breed : String&lt;/div&gt;Age : Int&amp;nbsp;&lt;div&gt;&lt;span style=&quot;background-color: initial;&quot;&gt;Color : String&lt;/span&gt;&lt;span style=&quot;background-color: initial;&quot;&gt;&amp;nbsp;&lt;/span&gt;&lt;br&gt;&lt;/div&gt;" style="text;strokeColor=none;fillColor=none;align=left;verticalAlign=top;spacingLeft=4;spacingRight=4;overflow=hidden;rotatable=0;points=[[0,0.5],[1,0.5]];portConstraint=eastwest;whiteSpace=wrap;html=1;" vertex="1" parent="EPPNhRtLsCtgf8uHa5UB-13">
          <mxGeometry y="26" width="260" height="84" as="geometry" />
        </mxCell>
        <mxCell id="EPPNhRtLsCtgf8uHa5UB-15" value="" style="line;strokeWidth=1;fillColor=none;align=left;verticalAlign=middle;spacingTop=-1;spacingLeft=3;spacingRight=3;rotatable=0;labelPosition=right;points=[];portConstraint=eastwest;strokeColor=inherit;" vertex="1" parent="EPPNhRtLsCtgf8uHa5UB-13">
          <mxGeometry y="110" width="260" height="8" as="geometry" />
        </mxCell>
        <mxCell id="EPPNhRtLsCtgf8uHa5UB-16" value="&lt;div&gt;Dog(name: Str.breed Str, age=int, coloreStr&lt;/div&gt;&lt;div&gt;getName(): Max&lt;/div&gt;&lt;div&gt;getBreed(): Great Dane&lt;/div&gt;&lt;div&gt;getAge(): 7&lt;/div&gt;&lt;div&gt;getColor(): Black&lt;/div&gt;&lt;div&gt;message(): String&lt;/div&gt;&lt;div&gt;main():void&lt;/div&gt;" style="text;strokeColor=none;fillColor=none;align=left;verticalAlign=top;spacingLeft=4;spacingRight=4;overflow=hidden;rotatable=0;points=[[0,0.5],[1,0.5]];portConstraint=eastwest;whiteSpace=wrap;html=1;" vertex="1" parent="EPPNhRtLsCtgf8uHa5UB-13">
          <mxGeometry y="118" width="260" height="172" as="geometry" />
        </mxCell>
        <mxCell id="EPPNhRtLsCtgf8uHa5UB-17" value="" style="endArrow=classic;html=1;rounded=0;exitX=1;exitY=0.5;exitDx=0;exitDy=0;entryX=0;entryY=0.5;entryDx=0;entryDy=0;" edge="1" parent="1" source="EPPNhRtLsCtgf8uHa5UB-6" target="EPPNhRtLsCtgf8uHa5UB-10">
          <mxGeometry width="50" height="50" relative="1" as="geometry">
            <mxPoint x="350" y="360" as="sourcePoint" />
            <mxPoint x="400" y="310" as="targetPoint" />
          </mxGeometry>
        </mxCell>
        <mxCell id="EPPNhRtLsCtgf8uHa5UB-21" value="" style="edgeStyle=elbowEdgeStyle;elbow=vertical;endArrow=classic;html=1;curved=0;rounded=0;endSize=8;startSize=8;entryX=0.002;entryY=0.071;entryDx=0;entryDy=0;entryPerimeter=0;" edge="1" parent="1" target="EPPNhRtLsCtgf8uHa5UB-13">
          <mxGeometry width="50" height="50" relative="1" as="geometry">
            <mxPoint x="360" y="160" as="sourcePoint" />
            <mxPoint x="510" y="420" as="targetPoint" />
            <Array as="points">
              <mxPoint x="360" y="430" />
            </Array>
          </mxGeometry>
        </mxCell>
      </root>
    </mxGraphModel>
  </diagram>
</mxfile>
